<svg xmlns="http://www.w3.org/2000/svg" width="20" height="17.5" viewBox="0 0 20 17.5"><defs><style>.a{fill:#747065;}</style></defs><path class="a" d="M8.059-15.051a5.343,5.343,0,0,0-7.289.527l-.77.8-.77-.793a5.371,5.371,0,0,0-7.289-.531,5.6,5.6,0,0,0-.387,8.117L-.887.871A1.229,1.229,0,0,0,0,1.25,1.214,1.214,0,0,0,.879.871l7.559-7.8A5.6,5.6,0,0,0,8.059-15.051ZM7.547-7.8.016,0-7.547-7.8a4.351,4.351,0,0,1,.3-6.3c2.141-1.828,4.656-.5,5.578.449L0-11.926l1.668-1.723c.906-.937,3.445-2.266,5.578-.449A4.354,4.354,0,0,1,7.547-7.8Z" transform="translate(10 16.25)"/></svg>