<svg xmlns="http://www.w3.org/2000/svg" width="21.001" height="21.001" viewBox="0 0 21.001 21.001"><defs><style>.a{fill:#4c4d4f;}</style></defs><path class="a" d="M20.856.857,15.877-4.122a.487.487,0,0,0-.349-.144h-.541a8.508,8.508,0,0,0,2.075-5.578,8.53,8.53,0,0,0-8.531-8.531A8.53,8.53,0,0,0,0-9.844,8.53,8.53,0,0,0,8.531-1.312a8.508,8.508,0,0,0,5.578-2.075v.541a.5.5,0,0,0,.144.349l4.979,4.979a.493.493,0,0,0,.7,0l.927-.927A.493.493,0,0,0,20.856.857ZM8.531-3.281A6.561,6.561,0,0,1,1.969-9.844a6.561,6.561,0,0,1,6.562-6.562,6.561,6.561,0,0,1,6.562,6.562A6.561,6.561,0,0,1,8.531-3.281Z" transform="translate(0 18.375)"/></svg>