<svg xmlns="http://www.w3.org/2000/svg" width="22.5" height="18" viewBox="0 0 22.5 18"><defs><style>.a{fill:#747065;}</style></defs><path class="a" d="M21.937-1.125H13.413A1.108,1.108,0,0,1,12.262,0H10.125A1.194,1.194,0,0,1,8.973-1.125H.562A.564.564,0,0,0,0-.562V0A2.257,2.257,0,0,0,2.25,2.25h18A2.257,2.257,0,0,0,22.5,0V-.562A.564.564,0,0,0,21.937-1.125ZM20.25-14.062a1.692,1.692,0,0,0-1.687-1.687H3.937A1.692,1.692,0,0,0,2.25-14.062V-2.25h18ZM18-4.5H4.5v-9H18Z" transform="translate(0 15.75)"/></svg>