<svg xmlns="http://www.w3.org/2000/svg" width="15.751" height="13.5" viewBox="0 0 15.751 13.5"><defs><style>.a{fill:#a82b19;}</style></defs><path class="a" d="M5.344-1.248a.418.418,0,0,0,.594,0l.25-.25a.422.422,0,0,0,0-.6L2.113-6.152H13.078a.423.423,0,0,0,.422-.422v-.352a.423.423,0,0,0-.422-.422H2.113L6.191-11.4a.422.422,0,0,0,0-.6l-.25-.25a.422.422,0,0,0-.6,0L.123-7.049a.422.422,0,0,0,0,.6ZM15.328-13.5h-.281a.423.423,0,0,0-.422.422V-.422A.423.423,0,0,0,15.047,0h.281a.423.423,0,0,0,.422-.422V-13.078A.423.423,0,0,0,15.328-13.5Z" transform="translate(0.001 13.5)"/></svg>