<svg xmlns="http://www.w3.org/2000/svg" width="18" height="18" viewBox="0 0 18 18"><defs><style>.a{fill:#b1b1b1;}</style></defs><path class="a" d="M8.283-13.162,6.39-15.054a2.372,2.372,0,0,0-3.356,0L-8.124-3.97l-.864,5.238a.844.844,0,0,0,.97.97l5.238-.864L8.305-9.784A2.374,2.374,0,0,0,8.283-13.162ZM-4.759-5.133,1.227-11.08l3.1,3.1L-1.617-1.991V-3.445H-3.3V-5.133ZM-6.113.356l-.994-.994.427-2.587.647-.643H-4.57V-2.18h1.687V-.718l-.643.647ZM7.211-10.877l0,0,0,0-1.689,1.7L2.424-12.269l1.7-1.689,0,0,0,0a.825.825,0,0,1,1.168,0l1.893,1.893A.827.827,0,0,1,7.211-10.877Z" transform="translate(9 15.75)"/></svg>