<svg xmlns="http://www.w3.org/2000/svg" width="18" height="13.5" viewBox="0 0 18 13.5"><defs><style>.a{fill:#747065;}</style></defs><path class="a" d="M17.659-9.042c-.787.612-1.828,1.392-5.414,4-.714.52-1.99,1.684-3.245,1.673C7.752-3.364,6.5-4.5,5.759-5.045,2.173-7.65,1.128-8.427.341-9.039A.21.21,0,0,0,0-8.873v7.186A1.688,1.688,0,0,0,1.687,0H16.312A1.688,1.688,0,0,0,18-1.687V-8.877A.212.212,0,0,0,17.659-9.042ZM9-4.5c.816.014,1.99-1.027,2.58-1.455,4.665-3.386,5.02-3.681,6.1-4.525A.841.841,0,0,0,18-11.145v-.668A1.688,1.688,0,0,0,16.312-13.5H1.687A1.688,1.688,0,0,0,0-11.812v.668a.846.846,0,0,0,.323.664c1.076.84,1.431,1.139,6.1,4.525C7.01-5.527,8.184-4.486,9-4.5Z" transform="translate(0 13.5)"/></svg>