<svg xmlns="http://www.w3.org/2000/svg" width="23.023" height="19.95" viewBox="0 0 23.023 19.95"><defs><style>.a{fill:#747065;}</style></defs><path class="a" d="M13.334,9.773l-.319-.958A1.668,1.668,0,0,0,11.5,7.681V3.834A3.834,3.834,0,0,0,7.668,0H5.751A3.834,3.834,0,0,0,1.917,3.834V7.681A1.666,1.666,0,0,0,.406,8.815l-.321.959a1.664,1.664,0,0,0,.873,2.04v3.044a.479.479,0,0,0,.479.479h.479a.479.479,0,0,0,.479-.479V11.982h8.628v2.876a.479.479,0,0,0,.479.479h.479a.479.479,0,0,0,.479-.479V11.814a1.663,1.663,0,0,0,.871-2.041Zm-4.467-8a2.388,2.388,0,0,1,1.2,2.063V7.668h-1.2ZM5.991,1.438H7.429V7.668H5.991Zm-1.438.333v5.9h-1.2V3.834A2.388,2.388,0,0,1,4.553,1.771Zm-3.1,8.458.321-.959A.237.237,0,0,1,2,9.106h9.426a.239.239,0,0,1,.227.164l.319.958a.24.24,0,0,1-.227.316H1.677A.24.24,0,0,1,1.449,10.229Z" transform="translate(0 4.506)"/><path class="a" d="M-.016,16.4q0-.066,0-.132H3.414c0-.025,0-.051,0-.077V.852a.852.852,0,1,1,1.7,0V16.189c0,.026,0,.051,0,.077H8.5v.008c0,.041,0,.082,0,.124,0,1.958-1.912,3.552-4.261,3.552S-.016,18.356-.016,16.4Z" transform="translate(23.007 19.95) rotate(180)"/></svg>