<svg xmlns="http://www.w3.org/2000/svg" width="14.531" height="14.531" viewBox="0 0 14.531 14.531">
<defs><style>.a{fill:#fff;}</style></defs>
<path d="M7.266-12.891A7.264,7.264,0,0,0,0-5.625,7.264,7.264,0,0,0,7.266,1.641a7.264,7.264,0,0,0,7.266-7.266A7.264,7.264,0,0,0,7.266-12.891Zm0,2.812A2.578,2.578,0,0,1,9.844-7.5,2.578,2.578,0,0,1,7.266-4.922,2.578,2.578,0,0,1,4.687-7.5,2.578,2.578,0,0,1,7.266-10.078ZM7.266,0A5.614,5.614,0,0,1,2.974-2,3.266,3.266,0,0,1,5.859-3.75a.717.717,0,0,1,.208.032,3.879,3.879,0,0,0,1.2.2,3.864,3.864,0,0,0,1.2-.2.717.717,0,0,1,.208-.032A3.266,3.266,0,0,1,11.558-2,5.614,5.614,0,0,1,7.266,0Z" transform="translate(0 12.891)"/></svg>