<svg xmlns="http://www.w3.org/2000/svg" width="62" height="46.5" viewBox="0 0 62 46.5"><defs><style>.a{fill:#747065;}</style></defs><path class="a" d="M60.825-31.145c-2.712,2.107-6.3,4.8-18.648,13.768-2.458,1.792-6.854,5.8-11.177,5.764-4.3.024-8.61-3.9-11.165-5.764C7.484-26.35,3.887-29.026,1.175-31.133A.724.724,0,0,0,0-30.564V-5.812A5.814,5.814,0,0,0,5.812,0H56.187A5.814,5.814,0,0,0,62-5.812V-30.576A.729.729,0,0,0,60.825-31.145ZM31-15.5c2.809.048,6.854-3.536,8.888-5.013,16.069-11.661,17.292-12.678,21-15.585A2.9,2.9,0,0,0,62-38.387v-2.3A5.814,5.814,0,0,0,56.187-46.5H5.812A5.814,5.814,0,0,0,0-40.687v2.3A2.916,2.916,0,0,0,1.114-36.1c3.705,2.894,4.929,3.923,21,15.585C24.146-19.036,28.191-15.451,31-15.5Z" transform="translate(0 46.5)"/></svg>