<svg xmlns="http://www.w3.org/2000/svg" width="18.375" height="21" viewBox="0 0 18.375 21"><defs><style>.a{fill:#4c4d4f;}</style></defs><path class="a" d="M14.437-13.125a5.256,5.256,0,0,0-5.25-5.25,5.256,5.256,0,0,0-5.25,5.25H0V-.656A3.281,3.281,0,0,0,3.281,2.625H15.094A3.281,3.281,0,0,0,18.375-.656V-13.125Zm-5.25-3.281a3.285,3.285,0,0,1,3.281,3.281H5.906A3.285,3.285,0,0,1,9.187-16.406ZM16.406-.656A1.314,1.314,0,0,1,15.094.656H3.281A1.314,1.314,0,0,1,1.969-.656v-10.5H3.937v1.641a.984.984,0,0,0,.984.984.984.984,0,0,0,.984-.984v-1.641h6.562v1.641a.984.984,0,0,0,.984.984.984.984,0,0,0,.984-.984v-1.641h1.969Z" transform="translate(0 18.375)"/></svg>