<svg xmlns="http://www.w3.org/2000/svg" width="28.365" height="24.819" viewBox="0 0 28.365 24.819"><defs><style>.a{fill:#747065;}</style></defs><path class="a" d="M15.612-14.549A7.578,7.578,0,0,0,5.274-13.8l-1.091,1.13L3.091-13.8c-2.26-2.338-6.82-3.745-10.338-.753A7.949,7.949,0,0,0-7.795-3.037L2.925,8.032a1.743,1.743,0,0,0,1.252.537,1.721,1.721,0,0,0,1.252-.537L16.149-3.037A7.939,7.939,0,0,0,15.612-14.549ZM14.886-4.267,4.2,6.8-6.521-4.267A6.17,6.17,0,0,1-6.094-13.2c3.036-2.593,6.6-.715,7.911.637l2.366,2.443L6.548-12.56c1.285-1.33,4.886-3.213,7.911-.637A6.175,6.175,0,0,1,14.886-4.267Z" transform="translate(10 16.25)"/></svg>