<?xml version="1.0" encoding="utf-8"?>
<!-- Generator: Adobe Illustrator 16.0.0, SVG Export Plug-In . SVG Version: 6.00 Build 0)  -->
<!DOCTYPE svg PUBLIC "-//W3C//DTD SVG 1.1//EN" "http://www.w3.org/Graphics/SVG/1.1/DTD/svg11.dtd">
<svg version="1.1" xmlns="http://www.w3.org/2000/svg" xmlns:xlink="http://www.w3.org/1999/xlink" x="0px" y="0px" width="63.33px"
	 height="63.33px" viewBox="0 0 63.33 63.33" enable-background="new 0 0 63.33 63.33" xml:space="preserve">
<g id="Instagram">
	<g>
		<path fill-rule="evenodd" clip-rule="evenodd" d="M38.618,24.172c0.122,0.336,0.409,0.597,0.747,0.723
			c0.31,0.098,0.588,0.103,1.161,0.103h2.864c0.58,0,0.878-0.004,1.187-0.103c0.338-0.125,0.599-0.386,0.722-0.723
			c0.099-0.31,0.104-0.587,0.104-1.162v-2.863c0-0.581-0.005-0.877-0.104-1.187c-0.123-0.337-0.384-0.598-0.722-0.723
			c-0.309-0.099-0.614-0.103-1.187-0.103h-2.864c-0.581,0-0.852,0.004-1.161,0.103c-0.338,0.125-0.625,0.386-0.747,0.723
			c-0.098,0.31-0.078,0.587-0.078,1.161v2.864C38.54,23.566,38.521,23.862,38.618,24.172z"/>
		<path fill-rule="evenodd" clip-rule="evenodd" d="M39.881,39.264c-4.54,4.54-11.892,4.54-16.431,0
			c-2.644-2.643-3.686-6.237-3.252-9.675h-2.632v14.033c0,0.616,0,0.94,0.104,1.265c0.128,0.359,0.414,0.645,0.774,0.774
			c0.325,0.104,0.63,0.104,1.236,0.104h23.94c0.616,0,0.938,0,1.264-0.104c0.358-0.13,0.619-0.415,0.749-0.774
			c0.104-0.324,0.104-0.63,0.104-1.235V29.588h-2.604C43.566,33.026,42.523,36.621,39.881,39.264z"/>
		<path fill-rule="evenodd" clip-rule="evenodd" d="M36.656,36.036c1.755-1.753,2.247-4.188,1.755-6.448h-0.104
			c-0.326-1.055-0.815-2.079-1.65-2.915c-1.377-1.375-3.201-2.062-5.003-2.062c-1.803,0-3.604,0.688-4.979,2.062
			c-0.836,0.836-1.323,1.86-1.651,2.915H24.92c-0.493,2.26,0,4.695,1.754,6.448C29.427,38.789,33.903,38.789,36.656,36.036z"/>
		<path fill-rule="evenodd" clip-rule="evenodd" d="M31.665,0C14.177,0,0,14.177,0,31.666C0,49.154,14.177,63.33,31.665,63.33
			c17.489,0,31.666-14.176,31.666-31.665C63.33,14.177,49.153,0,31.665,0z M49.994,41.585c0,2.41,0,3.652-0.412,4.954
			c-0.517,1.422-1.647,2.526-3.07,3.044c-1.299,0.412-2.504,0.412-4.954,0.412H21.746c-2.41,0-3.653,0-4.954-0.412
			c-1.42-0.518-2.526-1.622-3.043-3.044c-0.413-1.302-0.413-2.531-0.413-4.98V21.745c0-2.41,0-3.627,0.413-4.927
			c0.518-1.422,1.623-2.553,3.043-3.07c1.295-0.409,2.527-0.413,4.954-0.413h0.026h19.813c2.41,0,3.627,0,4.926,0.413
			c1.423,0.517,2.554,1.648,3.07,3.07c0.412,1.3,0.412,2.504,0.412,4.954V41.585z"/>
	</g>
</g>
<g id="PInterest" display="none">
	<path display="inline" fill-rule="evenodd" clip-rule="evenodd" d="M54.062,9.28c-0.752-0.754-1.534-1.46-2.34-2.122
		c-0.184-0.15-0.372-0.293-0.56-0.44c-0.209-0.164-0.416-0.33-0.628-0.487c-0.272-0.203-0.552-0.397-0.831-0.59
		c-0.134-0.094-0.268-0.19-0.403-0.282c-0.314-0.211-0.635-0.414-0.958-0.614c-0.109-0.068-0.218-0.139-0.328-0.205
		c-0.332-0.201-0.67-0.392-1.01-0.581c-0.109-0.061-0.217-0.124-0.327-0.183c-0.332-0.179-0.669-0.349-1.008-0.517
		c-0.127-0.062-0.254-0.127-0.381-0.188c-0.318-0.152-0.641-0.295-0.965-0.437c-0.157-0.068-0.312-0.139-0.47-0.204
		C43.56,2.309,43.26,2.194,42.962,2.08c-0.194-0.074-0.388-0.149-0.582-0.22c-0.266-0.095-0.534-0.183-0.802-0.271
		c-0.232-0.076-0.463-0.154-0.696-0.225c-0.238-0.072-0.48-0.138-0.721-0.205c-0.264-0.073-0.526-0.147-0.791-0.213
		c-0.221-0.056-0.445-0.104-0.668-0.154c-0.284-0.064-0.567-0.13-0.853-0.186c-0.217-0.043-0.437-0.079-0.655-0.117
		c-0.29-0.051-0.58-0.104-0.871-0.147c-0.235-0.035-0.473-0.061-0.709-0.09c-0.275-0.034-0.551-0.072-0.826-0.099
		c-0.289-0.028-0.582-0.046-0.873-0.066c-0.226-0.016-0.451-0.037-0.677-0.048C32.718,0.014,32.196,0,31.669,0
		c-0.005,0-0.01,0-0.016,0c-0.521,0-1.039,0.014-1.552,0.039c-0.229,0.011-0.457,0.033-0.686,0.049
		c-0.289,0.021-0.578,0.038-0.865,0.066c-0.274,0.027-0.548,0.064-0.821,0.098c-0.239,0.03-0.479,0.056-0.716,0.091
		c-0.286,0.042-0.571,0.094-0.855,0.144c-0.226,0.04-0.452,0.076-0.676,0.121c-0.275,0.054-0.549,0.118-0.823,0.18
		c-0.234,0.053-0.47,0.104-0.702,0.162c-0.25,0.062-0.5,0.133-0.749,0.202c-0.256,0.071-0.513,0.141-0.767,0.218
		c-0.216,0.065-0.43,0.138-0.645,0.208c-0.288,0.094-0.574,0.188-0.857,0.29c-0.175,0.063-0.348,0.131-0.521,0.197
		c-0.32,0.122-0.639,0.245-0.954,0.376c-0.135,0.056-0.268,0.116-0.401,0.174c-0.348,0.151-0.694,0.305-1.035,0.468
		c-0.103,0.049-0.204,0.101-0.306,0.151c-0.364,0.179-0.726,0.362-1.083,0.554c-0.083,0.045-0.166,0.093-0.249,0.139
		c-0.366,0.202-0.729,0.409-1.086,0.625c-0.083,0.05-0.165,0.104-0.248,0.155c-0.349,0.215-0.694,0.435-1.034,0.663
		c-0.109,0.074-0.217,0.152-0.326,0.228c-0.305,0.21-0.608,0.422-0.905,0.643c-0.185,0.138-0.366,0.284-0.549,0.426
		c-0.213,0.166-0.428,0.329-0.636,0.499c-0.802,0.66-1.581,1.364-2.33,2.115c-1.546,1.549-2.899,3.217-4.059,4.977
		c0,0.001-0.001,0.002-0.002,0.003c-0.289,0.438-0.566,0.882-0.831,1.332c-0.001,0.002-0.002,0.004-0.003,0.007
		c-2.39,4.052-3.802,8.521-4.237,13.065c-0.002,0.027-0.003,0.054-0.006,0.081c-0.044,0.472-0.079,0.944-0.102,1.417
		c-0.015,0.307-0.018,0.616-0.023,0.925C0.01,31.285,0,31.484,0,31.683c0.007,12.499,7.257,23.302,17.78,28.445
		c0.134,0.065,0.269,0.129,0.403,0.192c0.157,0.074,0.316,0.143,0.475,0.215c0.714-4.225,1.505-8.46,2.447-12.643
		c0.973-4.31,2.043-8.596,3.254-12.846c-1.541-2.303-1.852-5.189-0.881-7.784c0.787-2.106,2.436-3.827,4.553-3.99
		c0.934-0.069,1.838,0.226,2.721,0.615c0.973,0.428,1.885,0.995,2.41,1.917c1.19,2.091-0.064,4.516-1.033,6.749
		c-1.247,2.86-1.864,5.931-1.799,9.05c1.104,1.603,2.916,2.602,4.86,2.646c4.104,0.094,6.971-2.958,8.499-6.786
		c1.027-2.582,1.68-5.689,1.453-8.897c-0.219-3.155-1.162-6.236-3.253-8.474c-1.801-1.925-4.264-3.05-6.926-3.489
		c-8.28-1.368-16.336,3.651-18.147,11.734c-0.578,2.585-0.383,5.283,0.84,7.628c0.607,1.158,1.445,2.264,1.572,3.568
		c0.131,1.365-0.531,2.664-1.723,3.336c-1.198-0.408-2.313-1.074-3.254-1.916c-2.948-2.652-3.969-6.724-3.637-10.702
		c0.689-8.202,6.425-14.969,14.123-17.982c7.735-3.025,16.632-1.956,22.549,3.796c2.982,2.901,4.811,6.581,5.357,10.583
		c0.526,3.818-0.154,7.837-1.57,11.58c-1.936,5.125-5.314,9.785-10.487,11.466c-2.787,0.907-5.818,0.8-8.536-0.308
		c-1.401-0.568-2.68-1.416-3.79-2.452c-0.74,3.034-1.627,6.04-2.604,9.009c-0.691,2.107-1.488,4.189-2.297,6.253
		c2.597,0.708,5.263,1.081,7.932,1.127c0.08,0.001,0.157,0.005,0.236,0.006c0.454,0.005,0.907-0.013,1.361-0.027
		c15.271-0.579,27.772-11.964,30.07-26.73c0.006-0.034,0.013-0.069,0.018-0.104c0.068-0.449,0.123-0.902,0.173-1.358
		c0.009-0.08,0.021-0.16,0.028-0.24c0.042-0.414,0.07-0.832,0.096-1.25c0.007-0.119,0.02-0.236,0.025-0.355
		c0.017-0.333,0.019-0.668,0.025-1.003C63.468,23.96,60.385,15.615,54.062,9.28z"/>
</g>
<g id="Facebook" display="none">
	<path display="inline" fill-rule="evenodd" clip-rule="evenodd" d="M31.665,0C14.177,0,0,14.177,0,31.664
		C0,49.153,14.177,63.33,31.665,63.33S63.33,49.153,63.33,31.664C63.33,14.177,49.153,0,31.665,0z M42.849,23.857l-0.489,7.789
		h-8.053v24.186H24.065V31.646H18.96v-7.789h5.105l0.26-9.568c0.348-1.706,1.266-3.244,2.621-4.337
		C28.369,8.8,30.14,8.23,31.937,7.889c4.175-0.791,8.481-0.381,12.434,1.177l-1.926,7.762c-1.049-0.39-2.129-0.616-3.209-0.687
		c-1.079-0.07-2.198,0.016-3.21,0.511c-0.74,0.363-1.293,0.99-1.719,1.692v5.513H42.849z"/>
</g>
<g id="Search" display="none">
	<g display="inline">
		<path fill-rule="evenodd" clip-rule="evenodd" d="M31.666,0C14.177,0,0,14.177,0,31.664C0,49.153,14.177,63.33,31.666,63.33
			c17.487,0,31.664-14.177,31.664-31.666C63.33,14.177,49.153,0,31.666,0z M44.246,53.228l-8.207-10.665
			c-2.34,1.209-4.922,1.847-7.607,1.847c-5.219,0-10.038-2.371-13.218-6.504c-2.715-3.528-3.893-7.902-3.318-12.316
			c0.576-4.415,2.835-8.34,6.364-11.054c2.94-2.263,6.452-3.458,10.154-3.458c5.22,0,10.038,2.37,13.217,6.503
			c2.715,3.528,3.894,7.902,3.317,12.316c-0.443,3.404-1.898,6.512-4.156,9.003l8.21,10.668L44.246,53.228z"/>
		<path fill-rule="evenodd" clip-rule="evenodd" d="M28.414,17.076c-2.368,0-4.614,0.766-6.497,2.215
			c-2.258,1.737-3.704,4.249-4.072,7.074c-0.368,2.825,0.386,5.624,2.123,7.882c2.036,2.646,5.121,4.163,8.463,4.163
			c2.367,0,4.612-0.766,6.495-2.214c2.258-1.737,3.705-4.251,4.072-7.076c0.368-2.825-0.385-5.624-2.123-7.882
			C34.841,18.594,31.757,17.076,28.414,17.076z"/>
	</g>
</g>
<g id="Shopping_bag" display="none">
	<g display="inline">
		<path fill-rule="evenodd" clip-rule="evenodd" d="M31.665,15.833c-2.046,0-3.77,1.332-4.397,3.168h8.795
			C35.435,17.165,33.711,15.833,31.665,15.833z"/>
		<path fill-rule="evenodd" clip-rule="evenodd" d="M31.665,0C14.177,0,0,14.176,0,31.663c0,17.489,14.177,31.666,31.665,31.666
			c17.488,0,31.665-14.177,31.665-31.666C63.33,14.176,49.153,0,31.665,0z M52.665,49.33H10.666V19h13.483
			c0.698-3.512,3.801-6.167,7.516-6.167s6.818,2.655,7.516,6.167h13.484V49.33z"/>
	</g>
</g>
</svg>
