<svg id="icon.circle_arrow" data-name="icon.circle arrow" xmlns="http://www.w3.org/2000/svg" width="26.578" height="26.156" viewBox="0 0 26.578 26.156">
  <path id="icon.circle_arrow-2" data-name="icon.circle arrow" d="M.633-23.2A.633.633,0,0,0,0-22.57v10.125a.633.633,0,0,0,.633.633H10.758a.633.633,0,0,0,.633-.633v-1.461a.633.633,0,0,0-.648-.633l-6.665.159a10.331,10.331,0,0,1,9.422-6.08A10.33,10.33,0,0,1,23.836-10.125,10.33,10.33,0,0,1,13.5.211,10.3,10.3,0,0,1,6.622-2.406a.635.635,0,0,0-.87.029L4.711-1.336a.634.634,0,0,0,.025.919A13.03,13.03,0,0,0,13.5,2.953,13.078,13.078,0,0,0,26.578-10.1,13.107,13.107,0,0,0,13.542-23.2,13.064,13.064,0,0,0,2.6-17.357l.124-5.2a.633.633,0,0,0-.633-.648Z" transform="translate(0 23.203)" fill="#fff"/>
</svg>
