<svg xmlns="http://www.w3.org/2000/svg" width="133.072" height="90.307" viewBox="0 0 133.072 90.307" style="&#10;    height: 220px;&#10;     background: #d6d6d6;&#10;    width: 325px;&#10;"><defs><style>.a{fill:#E0E1DF;}</style></defs><path class="a" d="M2.793-84.721c5.586.532,7.182,4.123,9.709,9.576,8.645,18.487,16.891,36.974,25.4,55.461,1.729,3.857,6.916,15.827,9.177,21.413a5.337,5.337,0,0,0,1.995.4,2.836,2.836,0,0,0,1.6-.4C54.53-9.31,62.51-26.334,67.3-36.043c4.123,9.31,11.837,25.935,16.093,37.772a4.248,4.248,0,0,0,1.862.4,2.836,2.836,0,0,0,1.6-.4C92.3-12.5,97.622-25.536,103.474-39.1l9.709-22.477c7.98-18.487,9.177-22.477,15.827-23.142l2.527-.266c.931-1.064.8-2.793-.266-3.192-3.458.266-7.315.4-12.369.4-4.123,0-7.714-.133-12.768-.4-1.064.532-1.2,2-.133,3.192l3.857.266c2.793.133,4.389,1.2,4.389,3.059,0,1.6-2.261,7.315-3.99,12.1-.931,2.394-7.98,20.083-10.64,26.467-3.857,9.443-7.847,18.753-11.97,28.063C83.258-25.137,78.6-35.112,74.081-45.353a10.094,10.094,0,0,1-.931-3.192,10.856,10.856,0,0,1,1.2-3.192c2-4.655,7.581-16.226,10.374-21.147,2.926-5.453,5.32-11.438,10.906-11.837l3.857-.266c.8-1.064.665-2.793-.266-3.192-3.059.266-8.379.4-12.768.4-4.921,0-8.911-.133-12.5-.4-.931.4-1.2,1.862-.266,3.192l3.99.266c4.256.266,4.921,1.729.133,13.034-2.926,7.182-5.32,12.236-7.847,17.423C66.234-62.51,62.51-70.889,59.717-77.406c-2.527-5.985-2.394-6.916,2.793-7.315l3.458-.266c.8-1.064.665-2.793-.266-3.192-3.059.266-7.98.4-14.63.4-5.32,0-10.374-.133-14.231-.4a2.056,2.056,0,0,0-.266,3.192l3.192.266c4.522.4,6.517,3.192,8.512,7.315,5.054,10.64,9.975,21.28,14.63,31.92a11.525,11.525,0,0,1,1.064,3.458,24.146,24.146,0,0,1-2.128,5.453C58.387-29.127,54.8-21.679,51.6-15.029,43.89-31.388,36.043-48.013,28.6-64.638c-4.123-9.443-6.916-16.226-6.916-17.822,0-1.2,1.6-2,4.389-2.261l3.059-.266c.8-.931.931-2.793-.266-3.192-4.655.266-11.438.4-15.162.4-4.123,0-10.108-.133-13.7-.4a2.187,2.187,0,0,0-.4,3.192Z" transform="translate(0.912 88.179)"/></svg>