<svg xmlns="http://www.w3.org/2000/svg" width="20" height="20.003" viewBox="0 0 20 20.003"><defs><style>.a{fill:#4c4d4f;}</style></defs><path class="a" d="M-5-8.75A1.249,1.249,0,0,0-6.25-7.5,1.249,1.249,0,0,0-5-6.25,1.249,1.249,0,0,0-3.75-7.5,1.251,1.251,0,0,0-5-8.75ZM6.352-15.23A10.062,10.062,0,0,0-2.008-17.3,9.943,9.943,0,0,0-9.8-9.543,10.047,10.047,0,0,0-7.152-.535,9.37,9.37,0,0,0-.594,2.5a6.331,6.331,0,0,0,1.02-.078A2.953,2.953,0,0,0,2.617.82a3.31,3.31,0,0,0,.008-2.992A1.5,1.5,0,0,1,2.7-3.656a1.425,1.425,0,0,1,1.25-.719h2.82A3.172,3.172,0,0,0,10-7.551,9.942,9.942,0,0,0,6.352-15.23Zm.414,8.98H3.945A3.322,3.322,0,0,0,1.094-4.637,3.382,3.382,0,0,0,.953-1.32,1.432,1.432,0,0,1,.945-.035a1.11,1.11,0,0,1-.8.609A7.194,7.194,0,0,1-5.8-1.832,8.187,8.187,0,0,1-7.961-9.176a8.054,8.054,0,0,1,6.312-6.289A8.191,8.191,0,0,1,5.16-13.781,8.072,8.072,0,0,1,8.125-7.547,1.316,1.316,0,0,1,6.766-6.25ZM-3.75-12.5A1.249,1.249,0,0,0-5-11.25,1.249,1.249,0,0,0-3.75-10,1.249,1.249,0,0,0-2.5-11.25,1.251,1.251,0,0,0-3.75-12.5ZM0-13.754A1.249,1.249,0,0,0-1.25-12.5,1.249,1.249,0,0,0,0-11.254,1.249,1.249,0,0,0,1.25-12.5,1.251,1.251,0,0,0,0-13.754ZM3.75-12.5A1.249,1.249,0,0,0,2.5-11.25,1.249,1.249,0,0,0,3.75-10,1.249,1.249,0,0,0,5-11.25,1.249,1.249,0,0,0,3.75-12.5Z" transform="translate(10 17.499)"/></svg>