<svg xmlns="http://www.w3.org/2000/svg" width="14" height="14" viewBox="0 0 14 14"><defs><style>.a{fill:#747065;}</style></defs><path class="a" d="M5.586-12.113A6.963,6.963,0,0,0,.142-6.688C-.87-1.575,3.743,2.237,7.219,1.7A1.726,1.726,0,0,0,8.381-.809,1.85,1.85,0,0,1,10.046-3.5h2.179A1.789,1.789,0,0,0,14-5.286,7.005,7.005,0,0,0,5.586-12.113ZM2.625-3.5a.874.874,0,0,1-.875-.875.874.874,0,0,1,.875-.875.874.874,0,0,1,.875.875A.874.874,0,0,1,2.625-3.5ZM3.5-7a.874.874,0,0,1-.875-.875A.874.874,0,0,1,3.5-8.75a.874.874,0,0,1,.875.875A.874.874,0,0,1,3.5-7ZM7-8.75a.874.874,0,0,1-.875-.875A.874.874,0,0,1,7-10.5a.874.874,0,0,1,.875.875A.874.874,0,0,1,7-8.75ZM10.5-7a.874.874,0,0,1-.875-.875A.874.874,0,0,1,10.5-8.75a.874.874,0,0,1,.875.875A.874.874,0,0,1,10.5-7Z" transform="translate(0 12.251)"/></svg>